<?xml version="1.0" encoding="UTF-8"?>
<svg id="Layer_2" data-name="Layer 2" xmlns="http://www.w3.org/2000/svg" viewBox="0 0 120.42 134.06">
  <defs>
    <style>
      .cls-1 {
        stroke-width: 3px;
      }

      .cls-1, .cls-2 {
        fill: none;
        stroke: #231f20;
        stroke-miterlimit: 10;
      }

      .cls-3 {
        fill: #a2866d;
      }

      .cls-3, .cls-4 {
        stroke-width: 0px;
      }

      .cls-4 {
        fill: #fff;
      }

      .cls-2 {
        stroke-width: .5px;
      }
    </style>
  </defs>
  <g id="Layer_1-2" data-name="Layer 1">
    <g>
      <g>
        <path class="cls-4" d="m95.57,13.03c.46,1.84,1.5,3.71,3.52,5.32-17.39,1.46-62.78,4.83-83.25,2.09l-.06-.71,79.79-6.7Z"/>
        <path class="cls-4" d="m15.78,19.73l.06.71c-6.33-.85-10.28-2.28-10.28-4.53l.02-.25L95.77,6.73c-.46,1.65-.8,3.95-.2,6.3L15.78,19.73Z"/>
        <path class="cls-4" d="m98.34,2.42l-1.67,1.88s-.5.95-.9,2.43L5.58,15.66s9.65-6.44,40.52-8.92c21.2-1.71,41.57-3.42,52.24-4.32Z"/>
        <path class="cls-4" d="m64.93,36.82c19.17-5.84,39.27,9.23,32.72,42.54-4.54,23.11-15.55,31.98-21.87,35.25-2.51,1.3-5.6.49-7.1-1.92-3.17-5.12-8.4-14.67-9.12-23.05-1.06-12.15,14.72-27.69,15.42-36.23.7-8.53-10.05-16.59-10.05-16.59Z"/>
        <path class="cls-4" d="m64.98,41.32c8.09,7.26,3.36,17.95-7.13,36-13.23,22.79,17.33,39.27,2.34,39.63-15,.36-35-11.22-35.73-42.84-.51-22.33,13.37-32.01,23.88-35.77,5.69-2.04,12.14-1.06,16.64,2.98Z"/>
        <path class="cls-3" d="m114.46,16.9l4.41,110.41s-21.74,6.32-60.73,5.1c-39-1.23-44.92-3.47-52.58-7.76-7.65-4.29-2.14-84.73-2.14-84.73l2.14-24.01c0,2.25,3.95,3.68,10.28,4.53,20.47,2.74,65.86-.63,83.25-2.09,4.37-.37,6.97-.62,6.97-.62l8.4-.83Zm-16.81,62.46c6.55-33.31-13.55-48.38-32.72-42.54,0,0,10.75,8.06,10.05,16.59-.7,8.54-16.48,24.08-15.42,36.23.72,8.38,5.95,17.93,9.12,23.05,1.5,2.41,4.59,3.22,7.1,1.92,6.32-3.27,17.33-12.14,21.87-35.25Zm-39.8-2.04c10.49-18.05,15.22-28.74,7.13-36-4.5-4.04-10.95-5.02-16.64-2.98-10.51,3.76-24.39,13.44-23.88,35.77.73,31.62,20.73,43.2,35.73,42.84,14.99-.36-15.57-16.84-2.34-39.63Z"/>
        <path class="cls-3" d="m95.57,13.03c-.6-2.35-.26-4.65.2-6.3.4-1.48.9-2.43.9-2.43l1.67-1.88c4.87-.41,7.72-.65,7.72-.65,0,0-5.32,7.45,0,15.96,0,0-2.6.25-6.97.62-2.02-1.61-3.06-3.48-3.52-5.32Z"/>
      </g>
      <g>
        <path class="cls-1" d="m5.58,15.66s9.65-6.44,40.52-8.92c21.2-1.71,41.57-3.42,52.24-4.32,4.87-.41,7.72-.65,7.72-.65,0,0-5.32,7.45,0,15.96,0,0-2.6.25-6.97.62-17.39,1.46-62.78,4.83-83.25,2.09-6.33-.85-10.28-2.28-10.28-4.53"/>
        <path class="cls-1" d="m99.09,18.35c-2.02-1.61-3.06-3.48-3.52-5.32-.6-2.35-.26-4.65.2-6.3.4-1.48.9-2.43.9-2.43l1.67-1.88"/>
        <path class="cls-1" d="m106.06,17.73l8.4-.83,4.41,110.41s-21.74,6.32-60.73,5.1c-39-1.23-44.92-3.47-52.58-7.76-7.65-4.29-2.14-84.73-2.14-84.73l2.14-24.01.02-.25"/>
        <path class="cls-1" d="m64.98,41.32c-4.5-4.04-10.95-5.02-16.64-2.98-10.51,3.76-24.39,13.44-23.88,35.77.73,31.62,20.73,43.2,35.73,42.84,14.99-.36-15.57-16.84-2.34-39.63,10.49-18.05,15.22-28.74,7.13-36Z"/>
        <path class="cls-1" d="m64.93,36.82s10.75,8.06,10.05,16.59c-.7,8.54-16.48,24.08-15.42,36.23.72,8.38,5.95,17.93,9.12,23.05,1.5,2.41,4.59,3.22,7.1,1.92,6.32-3.27,17.33-12.14,21.87-35.25,6.55-33.31-13.55-48.38-32.72-42.54Z"/>
        <line class="cls-2" x1="95.77" y1="6.73" x2="5.58" y2="15.66"/>
        <polyline class="cls-2" points="96.26 12.97 95.57 13.03 15.78 19.73 15.37 19.76"/>
      </g>
    </g>
  </g>
</svg>